<?xml version="1.0" encoding="utf-8"?>
<!-- Generator: Adobe Illustrator 22.0.1, SVG Export Plug-In . SVG Version: 6.00 Build 0)  -->
<svg version="1.1" id="Layer_1" xmlns="http://www.w3.org/2000/svg" xmlns:xlink="http://www.w3.org/1999/xlink" x="0px" y="0px"
	 viewBox="0 0 24 24" style="enable-background:new 0 0 24 24;" xml:space="preserve">
<style type="text/css">
	.st0{fill:#FFFFFF;}
</style>
<path class="st0" d="M12,4.5C12,4.2,11.8,4,11.5,4S11,4.2,11,4.5V6c-2.2,0.2-4,2.2-4,4.5v5.9L5.4,18h12.2L16,16.4v-5.9
	c0-2.3-1.8-4.2-4-4.5V4.5z M11.5,3C12.3,3,13,3.7,13,4.5v0.7c2.3,0.7,4,2.8,4,5.3V16l3,3H3l3-3l0-5.5C6,8,7.7,5.9,10,5.2V4.5
	C10,3.7,10.7,3,11.5,3z M11.5,22c-1.2,0-2.2-0.9-2.4-2h1c0.2,0.6,0.8,1,1.4,1s1.2-0.4,1.4-1h1C13.7,21.1,12.7,22,11.5,22z"/>
</svg>
