<?xml version="1.0" encoding="utf-8"?>
<!-- Generator: Adobe Illustrator 22.0.1, SVG Export Plug-In . SVG Version: 6.00 Build 0)  -->
<svg version="1.1" id="Layer_1" xmlns="http://www.w3.org/2000/svg" xmlns:xlink="http://www.w3.org/1999/xlink" x="0px" y="0px"
	 viewBox="0 0 24 24" style="enable-background:new 0 0 24 24;" xml:space="preserve">
<style type="text/css">
	.st0{fill:#474C4F;}
</style>
<g>
	<path class="st0" d="M13.3,20H9.8v-7H7.5V9.7h2.3c-0.2-1.9,0.1-3.4,1-4.4C11.5,4.5,12.6,4,14.1,4c0.5,0,1.1,0.1,1.7,0.2l0.2,0v3
		h-0.3c-0.1,0-0.2,0-0.4,0c-0.2,0-0.5,0-0.8,0c-0.8,0-1,0.2-1.1,0.3c-0.3,0.4-0.2,1.8-0.2,2.3c0.5,0,1.1,0,1.5,0c0.4,0,0.7,0,0.9,0
		H16L16,10.1c0,0.1,0,0.3-0.1,0.6c-0.1,1-0.3,1.9-0.3,2.1L15.5,13h-2.2V20z"/>
</g>
</svg>
