<?xml version="1.0" encoding="utf-8"?>
<!-- Generator: Adobe Illustrator 22.0.1, SVG Export Plug-In . SVG Version: 6.00 Build 0)  -->
<svg version="1.1" id="Layer_1" xmlns="http://www.w3.org/2000/svg" xmlns:xlink="http://www.w3.org/1999/xlink" x="0px" y="0px"
	 viewBox="0 0 24 24" style="enable-background:new 0 0 24 24;" xml:space="preserve">
<style type="text/css">
	.st0{fill:#FFFFFF;}
</style>
<path class="st0" d="M11.5,3c5.2,0,9.5,4.3,9.5,9.5c0,5.2-4.3,9.5-9.5,9.5C6.3,22,2,17.7,2,12.5C2,7.3,6.3,3,11.5,3z M11.5,4
	C6.8,4,3,7.8,3,12.5c0,4.7,3.8,8.5,8.5,8.5c4.7,0,8.5-3.8,8.5-8.5C20,7.8,16.2,4,11.5,4z M11,8v2h1V8H11z M11,12v5h1v-5H11z"/>
</svg>
