<?xml version="1.0" encoding="utf-8"?>
<!-- Generator: Adobe Illustrator 22.0.1, SVG Export Plug-In . SVG Version: 6.00 Build 0)  -->
<svg version="1.1" id="Layer_1" xmlns="http://www.w3.org/2000/svg" xmlns:xlink="http://www.w3.org/1999/xlink" x="0px" y="0px"
	 viewBox="0 0 24 24" style="enable-background:new 0 0 24 24;" xml:space="preserve">
<style type="text/css">
	.st0{fill:#474C4F;}
</style>
<g id="wH2Akz_1_">
	<g>
		<path class="st0" d="M20.3,20c-1.2,0-2.3,0-3.6,0c0-0.2,0-0.3,0-0.4c0-1.7,0-3.4,0-5.2c0-0.3,0-0.7-0.1-1
			c-0.2-1.1-0.8-1.7-1.9-1.6c-1,0.1-1.8,0.9-1.8,1.9c0,1.4,0,2.8,0,4.2c0,0.7,0,1.4,0,2.1c-1.2,0-2.4,0-3.5,0c0-3.6,0-7.1,0-10.7
			c1.2,0,2.3,0,3.5,0c0,0.5,0,0.9,0,1.4c0.1-0.1,0.2-0.2,0.2-0.2c0.9-1.3,2.2-1.6,3.7-1.4c1.5,0.2,2.5,1,3,2.4
			c0.2,0.6,0.3,1.2,0.4,1.8C20.3,15.4,20.3,17.7,20.3,20z"/>
		<path class="st0" d="M3.7,5.5c0.5-1.2,1.3-1.6,2.4-1.4c1,0.2,1.7,0.9,1.6,2C7.6,7,6.8,7.7,5.9,7.7C4.7,7.8,4.1,7.4,3.7,6.3
			C3.7,6,3.7,5.8,3.7,5.5z"/>
		<path class="st0" d="M3.9,9.2c1.2,0,2.3,0,3.5,0c0,3.6,0,7.1,0,10.7c-1.2,0-2.3,0-3.5,0C3.9,16.4,3.9,12.8,3.9,9.2z"/>
	</g>
</g>
<circle class="st0" cx="5.6" cy="5.9" r="2"/>
</svg>
