<?xml version="1.0" encoding="utf-8"?>
<!-- Generator: Adobe Illustrator 22.0.1, SVG Export Plug-In . SVG Version: 6.00 Build 0)  -->
<svg version="1.1" id="Layer_1" xmlns="http://www.w3.org/2000/svg" xmlns:xlink="http://www.w3.org/1999/xlink" x="0px" y="0px"
	 viewBox="0 0 24 24" style="enable-background:new 0 0 24 24;" xml:space="preserve">
<style type="text/css">
	.st0{fill:#5C7182;}
</style>
<path class="st0" d="M22.1,5.1c0-1.3-1-2.3-2.3-2.3h-15c-1.3,0-2.3,1-2.3,2.3v10.3c0,1.3,1,2.3,2.3,2.3h13l4.1,4.1L22.1,5.1z
	 M19.7,10.3c0,1-0.8,1.8-1.8,1.8c-1,0-1.8-0.8-1.8-1.8s0.8-1.8,1.8-1.8C18.9,8.5,19.7,9.3,19.7,10.3z M14.1,10.3
	c0,1-0.8,1.8-1.8,1.8s-1.8-0.8-1.8-1.8s0.8-1.8,1.8-1.8S14.1,9.3,14.1,10.3z M8.3,10.3c0,1-0.8,1.8-1.8,1.8s-1.8-0.8-1.8-1.8
	s0.8-1.8,1.8-1.8S8.3,9.3,8.3,10.3z"/>
</svg>
