<?xml version="1.0" encoding="utf-8"?>
<!-- Generator: Adobe Illustrator 22.0.1, SVG Export Plug-In . SVG Version: 6.00 Build 0)  -->
<svg version="1.1" id="Layer_1" xmlns="http://www.w3.org/2000/svg" xmlns:xlink="http://www.w3.org/1999/xlink" x="0px" y="0px"
	 viewBox="0 0 24 24" style="enable-background:new 0 0 24 24;" xml:space="preserve">
<style type="text/css">
	.st0{fill:#474C4F;}
</style>
<path class="st0" d="M2,10h3c0.6,0,1,0.4,1,1v9c0,0.6-0.4,1-1,1H2c-0.6,0-1-0.4-1-1v-9C1,10.4,1.4,10,2,10z M2,11v9h3v-9H2z
	 M17.7,19l3-5c0.2-0.3,0.3-0.7,0.3-1v-1c0-1.1-0.9-2-2-2h-5.6l1.5-5.4l0,0c0.1-0.3,0-0.7-0.3-1l-6,6l0,0C8.2,9.9,8,10.4,8,11v7
	c0,1.1,0.9,2,2,2h6C16.7,20,17.4,19.6,17.7,19z M22,13c0,0.6-0.2,1.1-0.5,1.6l-2.9,4.8C18.1,20.4,17.1,21,16,21h-6c-1.7,0-3-1.3-3-3
	v-7c0-0.8,0.3-1.6,0.9-2.1l6.7-6.7l0.7,0.7c0.5,0.5,0.7,1.3,0.5,2L14.7,9H19c1.7,0,3,1.3,3,3V13z"/>
</svg>
