<?xml version="1.0" encoding="utf-8"?>
<!-- Generator: Adobe Illustrator 22.0.1, SVG Export Plug-In . SVG Version: 6.00 Build 0)  -->
<svg version="1.1" id="Layer_1" xmlns="http://www.w3.org/2000/svg" xmlns:xlink="http://www.w3.org/1999/xlink" x="0px" y="0px"
	 viewBox="0 0 24 24" style="enable-background:new 0 0 24 24;" xml:space="preserve">
<style type="text/css">
	.st0{fill:#474C4F;}
</style>
<g id="Prj3cd_1_">
	<g>
		<path class="st0" d="M2.7,21.3C2.7,21.3,2.7,21.3,2.7,21.3c0-0.1,0-0.1,0-0.2c0.5-1.5,1-3,1.5-4.6c0,0,0-0.1,0-0.1
			c-0.1-0.2-0.2-0.4-0.3-0.6c-0.9-1.8-1.2-3.7-0.8-5.7c0.3-1.7,1-3.1,2.2-4.4c1.1-1.3,2.5-2.1,4.1-2.6c0.6-0.2,1.2-0.3,1.8-0.4
			c0.2,0,0.3,0,0.5,0c0.2,0,0.4,0,0.6,0c0,0,0.1,0,0.1,0c0.3,0,0.6,0,1,0.1C14,2.8,14.5,3,15,3.1c1.6,0.5,3,1.4,4.1,2.7
			c1.2,1.4,1.9,3,2.2,4.8c0.1,1,0.1,2.1-0.1,3.1c-0.4,2-1.5,3.7-3,5c-1.4,1.2-3.1,1.9-5,2.1c-1,0.1-2,0-3-0.2
			c-0.8-0.2-1.6-0.5-2.3-0.8c-0.1,0-0.1,0-0.2,0c-1.5,0.5-3.1,1-4.6,1.5C2.9,21.3,2.8,21.3,2.7,21.3z M5,19.1c0.1,0,0.1,0,0.2,0
			c0.9-0.3,1.8-0.5,2.7-0.8c0.1,0,0.1,0,0.2,0c0.3,0.2,0.5,0.3,0.8,0.4c1.4,0.7,2.9,0.9,4.4,0.7c1.6-0.2,3.1-0.9,4.2-2.1
			c1.9-1.9,2.7-4.1,2.2-6.8c-0.2-1.6-1-3-2.1-4.1c-1.3-1.3-2.9-2-4.7-2.2c-1-0.1-1.9,0-2.8,0.2c-1.6,0.5-3,1.4-4,2.7
			c-1.5,2-1.9,4.2-1.3,6.6c0.2,0.9,0.6,1.7,1.1,2.4c0,0.1,0,0.1,0,0.2c-0.3,0.8-0.5,1.6-0.8,2.4C5.1,18.8,5,18.9,5,19.1z"/>
		<path class="st0" d="M9.3,7.6C9.3,7.6,9.3,7.6,9.3,7.6c-0.1,0-0.1,0-0.2,0c-0.3,0-0.5,0.1-0.6,0.3C8,8.4,7.7,9,7.7,9.6
			c0,0.6,0.1,1.1,0.4,1.5c0.4,0.9,1,1.6,1.7,2.3c0.6,0.6,1.3,1.2,2,1.6c0.6,0.3,1.3,0.6,2,0.8c0.3,0.1,0.6,0.2,0.9,0.2
			c0.5,0,0.9-0.2,1.3-0.4c0.6-0.3,0.9-0.9,0.9-1.6c0-0.1-0.1-0.2-0.2-0.3c-0.5-0.2-1-0.5-1.5-0.7c-0.2-0.1-0.3-0.1-0.5-0.2
			c-0.1,0-0.2,0-0.2,0.1c-0.1,0.1-0.2,0.2-0.2,0.3c-0.2,0.2-0.4,0.4-0.6,0.7c-0.1,0.2-0.3,0.2-0.5,0.1c-1-0.4-1.8-1-2.4-1.8
			c-0.2-0.3-0.5-0.6-0.7-0.9c-0.1-0.1-0.1-0.2,0-0.3c0.1-0.1,0.2-0.2,0.2-0.3c0.1-0.2,0.3-0.4,0.4-0.6c0.1-0.1,0.1-0.2,0-0.3
			c-0.2-0.5-0.4-0.9-0.6-1.4C10.1,8.2,10,8,9.9,7.8C9.8,7.7,9.7,7.6,9.6,7.6C9.5,7.6,9.4,7.6,9.3,7.6z"/>
		<path class="st0" d="M9.3,7.6c0.1,0,0.2,0,0.3,0c0.1,0,0.2,0.1,0.3,0.2C10,8,10.1,8.2,10.2,8.4c0.2,0.5,0.4,0.9,0.6,1.4
			c0,0.1,0,0.2,0,0.3c-0.1,0.2-0.3,0.4-0.4,0.6c-0.1,0.1-0.2,0.2-0.2,0.3c-0.1,0.1-0.1,0.2,0,0.3c0.2,0.3,0.4,0.6,0.7,0.9
			c0.7,0.8,1.5,1.4,2.4,1.8c0.2,0.1,0.4,0.1,0.5-0.1c0.2-0.2,0.4-0.4,0.6-0.7c0.1-0.1,0.2-0.2,0.2-0.3c0.1-0.1,0.1-0.1,0.2-0.1
			c0.2,0.1,0.3,0.1,0.5,0.2c0.5,0.2,1,0.5,1.5,0.7c0.1,0.1,0.2,0.2,0.2,0.3c0,0.7-0.2,1.3-0.9,1.6c-0.4,0.2-0.8,0.4-1.3,0.4
			c-0.3,0-0.6-0.1-0.9-0.2c-0.7-0.2-1.3-0.4-2-0.8c-0.8-0.4-1.4-1-2-1.6c-0.7-0.7-1.2-1.5-1.7-2.3c-0.3-0.5-0.4-1-0.4-1.5
			C7.7,9,8,8.4,8.5,7.9c0.2-0.2,0.4-0.3,0.6-0.3C9.2,7.6,9.3,7.6,9.3,7.6C9.3,7.6,9.3,7.6,9.3,7.6z"/>
	</g>
</g>
</svg>
