<?xml version="1.0" encoding="utf-8"?>
<!-- Generator: Adobe Illustrator 22.0.1, SVG Export Plug-In . SVG Version: 6.00 Build 0)  -->
<svg version="1.1" id="Layer_1" xmlns="http://www.w3.org/2000/svg" xmlns:xlink="http://www.w3.org/1999/xlink" x="0px" y="0px"
	 viewBox="0 0 24 24" style="enable-background:new 0 0 24 24;" xml:space="preserve">
<style type="text/css">
	.st0{fill:#006EFF;}
</style>
<path class="st0" d="M11.5,14c4.1,0,7.5,1.6,7.5,3.5V20H4v-2.5C4,15.6,7.4,14,11.5,14z M18,17.5c0-1.4-2.9-2.5-6.5-2.5
	C7.9,15,5,16.1,5,17.5V19h13V17.5z M11.5,5C13.4,5,15,6.6,15,8.5c0,1.9-1.6,3.5-3.5,3.5S8,10.4,8,8.5C8,6.6,9.6,5,11.5,5z M11.5,6
	C10.1,6,9,7.1,9,8.5s1.1,2.5,2.5,2.5S14,9.9,14,8.5S12.9,6,11.5,6z"/>
</svg>
