<?xml version="1.0" encoding="utf-8"?>
<!-- Generator: Adobe Illustrator 22.0.1, SVG Export Plug-In . SVG Version: 6.00 Build 0)  -->
<svg version="1.1" id="Layer_1" xmlns="http://www.w3.org/2000/svg" xmlns:xlink="http://www.w3.org/1999/xlink" x="0px" y="0px"
	 viewBox="0 0 24 24" style="enable-background:new 0 0 24 24;" xml:space="preserve">
<style type="text/css">
	.st0{fill:#006EFF;}
</style>
<path class="st0" d="M14,4l-3,3H3c-1.7,0-3,1.3-3,3v3c0,1.7,1.3,3,3,3v3c0,1.1,0.9,2,2,2h1c1.1,0,2-0.9,2-2v-3h3l3,3h2V4H14z
	 M14.4,5H15v13h-0.6l-3-3H3c-1.1,0-2-0.9-2-2v-3c0-1.1,0.9-2,2-2h8.4L14.4,5z M18,7v1c1.7,0.2,3,1.7,3,3.5s-1.3,3.2-3,3.5v1
	c2.2-0.2,4-2.2,4-4.5S20.2,7.2,18,7z M18,10.1v2.8c0.6-0.2,1-0.8,1-1.4S18.6,10.3,18,10.1z M4,16h3v3c0,0.6-0.4,1-1,1H5
	c-0.6,0-1-0.4-1-1V16z"/>
</svg>
