<?xml version="1.0" encoding="utf-8"?>
<!-- Generator: Adobe Illustrator 22.0.1, SVG Export Plug-In . SVG Version: 6.00 Build 0)  -->
<svg version="1.1" id="Layer_1" xmlns="http://www.w3.org/2000/svg" xmlns:xlink="http://www.w3.org/1999/xlink" x="0px" y="0px"
	 viewBox="0 0 24 24" style="enable-background:new 0 0 24 24;" xml:space="preserve">
<style type="text/css">
	.st0{fill:#006EFF;}
</style>
<path class="st0" d="M19.6,15.5l-1.8-1.3c0.3-1.1,0.3-2.2,0-3.4l1.8-1.3L18.1,7l-2,0.9c-0.8-0.8-1.8-1.4-3-1.7L13,4h-3L9.9,6.2
	c-1.2,0.3-2.2,0.9-3,1.7L4.9,7L3.4,9.5l1.8,1.3c-0.3,1.2-0.3,2.3,0,3.4l-1.8,1.3L4.9,18l2-0.9c0.8,0.8,1.8,1.4,3,1.7L10,21h3
	l0.2-2.2c1.2-0.3,2.2-0.9,3-1.7l2,0.9L19.6,15.5z M13.5,3C13.8,3,14,3.2,14,3.5l0.2,2c0.8,0.3,1.4,0.7,2,1.2l1.9-0.9
	c0.2-0.1,0.5,0,0.7,0.2l2,3.5c0.1,0.2,0.1,0.5-0.2,0.7l-1.7,1.2c0.1,0.8,0.1,1.6,0,2.4l1.7,1.2c0.2,0.1,0.3,0.4,0.2,0.7l-2,3.5
	c-0.1,0.2-0.4,0.3-0.7,0.2l-1.9-0.9c-0.6,0.5-1.3,0.9-2,1.2l-0.2,2c0,0.3-0.2,0.5-0.5,0.5h-4C9.2,22,9,21.8,9,21.5l-0.2-2
	c-0.8-0.3-1.4-0.7-2-1.2l-1.9,0.9c-0.2,0.1-0.5,0-0.7-0.2l-2-3.5c-0.1-0.2-0.1-0.5,0.2-0.7l1.7-1.2C4,12.8,4,12,4.1,11.2L2.4,10
	c-0.2,0-0.3-0.3-0.1-0.5l2-3.5C4.4,5.8,4.7,5.7,5,5.8l1.9,0.9c0.6-0.5,1.3-0.9,2-1.2l0.2-2C9,3.2,9.2,3,9.5,3H13.5z M11.5,9
	c1.9,0,3.5,1.6,3.5,3.5S13.4,16,11.5,16S8,14.4,8,12.5S9.6,9,11.5,9z M11.5,10C10.1,10,9,11.1,9,12.5s1.1,2.5,2.5,2.5
	s2.5-1.1,2.5-2.5S12.9,10,11.5,10z"/>
</svg>
