<?xml version="1.0" encoding="utf-8"?>
<!-- Generator: Adobe Illustrator 22.0.1, SVG Export Plug-In . SVG Version: 6.00 Build 0)  -->
<svg version="1.1" id="Layer_1" xmlns="http://www.w3.org/2000/svg" xmlns:xlink="http://www.w3.org/1999/xlink" x="0px" y="0px"
	 viewBox="0 0 24 24" style="enable-background:new 0 0 24 24;" xml:space="preserve">
<style type="text/css">
	.st0{fill:#006EFF;}
</style>
<path class="st0" d="M5,5h13c1.7,0,3,1.3,3,3v9c0,1.7-1.3,3-3,3H5c-1.7,0-3-1.3-3-3V8C2,6.3,3.3,5,5,5z M5,6C4.5,6,4.1,6.2,3.7,6.5
	l7.8,5.1l7.8-5.1C18.9,6.2,18.5,6,18,6H5z M11.5,12.7L3.1,7.3C3,7.5,3,7.7,3,8v9c0,1.1,0.9,2,2,2h13c1.1,0,2-0.9,2-2V8
	c0-0.3,0-0.5-0.1-0.7L11.5,12.7z"/>
</svg>
