<?xml version="1.0" encoding="utf-8"?>
<!-- Generator: Adobe Illustrator 22.0.1, SVG Export Plug-In . SVG Version: 6.00 Build 0)  -->
<svg version="1.1" id="Layer_1" xmlns="http://www.w3.org/2000/svg" xmlns:xlink="http://www.w3.org/1999/xlink" x="0px" y="0px"
	 viewBox="0 0 24 24" style="enable-background:new 0 0 24 24;" xml:space="preserve">
<style type="text/css">
	.st0{fill:#006EFF;}
</style>
<path class="st0" d="M15,11c-1.7,0-3-1.3-3-3V4H8C6.9,4,6,4.9,6,6v13c0,1.1,0.9,2,2,2h9c1.1,0,2-0.9,2-2v-8H15z M13,8
	c0,1.1,0.9,2,2,2h3.6L13,4.4V8z M8,3h5l7,7v9c0,1.7-1.3,3-3,3H8c-1.7,0-3-1.3-3-3V6C5,4.3,6.3,3,8,3z M8,24c-2.8,0-5-2.2-5-5V7h1v12
	c0,2.2,1.8,4,4,4h8v1H8z"/>
</svg>
