<?xml version="1.0" encoding="utf-8"?>
<!-- Generator: Adobe Illustrator 22.0.1, SVG Export Plug-In . SVG Version: 6.00 Build 0)  -->
<svg version="1.1" id="Layer_1" xmlns="http://www.w3.org/2000/svg" xmlns:xlink="http://www.w3.org/1999/xlink" x="0px" y="0px"
	 viewBox="0 0 24 24" style="enable-background:new 0 0 24 24;" xml:space="preserve">
<style type="text/css">
	.st0{fill:#006EFF;}
</style>
<path class="st0" d="M11.5,4C6.8,4,3,7.8,3,12.5S6.8,21,11.5,21s8.5-3.8,8.5-8.5S16.2,4,11.5,4z M11.5,3c5.2,0,9.5,4.3,9.5,9.5
	S16.7,22,11.5,22S2,17.7,2,12.5S6.3,3,11.5,3z M11,17h1v2h-1V17z M11.5,6C13.4,6,15,7.6,15,9.5c0,0.9-0.7,1.5-1.4,2.2l-0.9,0.9
	C12,13.3,12,14.5,12,15l0,0h-1c0-0.1-0.1-2,0.9-3.1l1-1c0.6-0.5,1.1-1,1.1-1.4C14,8.1,12.9,7,11.5,7S9,8.1,9,9.5H8
	C8,7.6,9.6,6,11.5,6z"/>
</svg>
