<?xml version="1.0" encoding="utf-8"?>
<!-- Generator: Adobe Illustrator 22.0.1, SVG Export Plug-In . SVG Version: 6.00 Build 0)  -->
<svg version="1.1" id="Layer_1" xmlns="http://www.w3.org/2000/svg" xmlns:xlink="http://www.w3.org/1999/xlink" x="0px" y="0px"
	 viewBox="0 0 24 24" style="enable-background:new 0 0 24 24;" xml:space="preserve">
<style type="text/css">
	.st0{fill:#006EFF;}
</style>
<path class="st0" d="M3,20.6L6.6,17H18c1.1,0,2-0.9,2-2V6c0-1.1-0.9-2-2-2H5C3.9,4,3,4.9,3,6V20.6z M3,22H2V6c0-1.7,1.3-3,3-3h13
	c1.7,0,3,1.3,3,3v9c0,1.7-1.3,3-3,3H7L3,22z M6.5,9C7.3,9,8,9.7,8,10.5S7.3,12,6.5,12S5,11.3,5,10.5S5.7,9,6.5,9z M6.5,10
	C6.2,10,6,10.2,6,10.5S6.2,11,6.5,11S7,10.8,7,10.5S6.8,10,6.5,10z M11.5,9c0.8,0,1.5,0.7,1.5,1.5S12.3,12,11.5,12S10,11.3,10,10.5
	S10.7,9,11.5,9z M11.5,10c-0.3,0-0.5,0.2-0.5,0.5s0.2,0.5,0.5,0.5s0.5-0.2,0.5-0.5S11.8,10,11.5,10z M16.5,9c0.8,0,1.5,0.7,1.5,1.5
	S17.3,12,16.5,12S15,11.3,15,10.5S15.7,9,16.5,9z M16.5,10c-0.3,0-0.5,0.2-0.5,0.5s0.2,0.5,0.5,0.5s0.5-0.2,0.5-0.5S16.8,10,16.5,10
	z"/>
</svg>
